<?xml version="1.0" encoding="utf-8"?><svg xmlns="http://www.w3.org/2000/svg" xmlns:xlink="http://www.w3.org/1999/xlink"><symbol fill="none" viewBox="0 0 14 14" id="Vector" xmlns="http://www.w3.org/2000/svg"><path d="M10.889 5.444A3.111 3.111 0 0 1 14 8.556v3.888A1.556 1.556 0 0 1 12.444 14H1.556A1.556 1.556 0 0 1 0 12.444V8.556a3.111 3.111 0 0 1 3.111-3.112V3.111h1.556v2.333h1.555V3.111h1.556v2.333h1.555V3.111h1.556v2.333ZM3.11 7a1.556 1.556 0 0 0-1.555 1.556v.777h10.888v-.777A1.555 1.555 0 0 0 10.89 7H3.11Zm-1.555 3.889v1.555h10.888V10.89H1.556ZM3.11.778A.778.778 0 0 0 3.89 0a.778.778 0 0 1 .778.778v.778a.778.778 0 0 1-1.556 0V.778Zm3.111 0A.778.778 0 0 0 7 0a.778.778 0 0 1 .778.778v.778a.778.778 0 0 1-1.556 0V.778Zm3.111 0A.778.778 0 0 0 10.111 0a.778.778 0 0 1 .778.778v.778a.778.778 0 0 1-1.556 0V.778Z" fill="#6A6A6A"/></symbol><symbol viewBox="0 0 10 8" id="arrow_down" xmlns="http://www.w3.org/2000/svg"><path d="M1.175.913 5 4.729 8.825.913 10 2.088l-5 5-5-5L1.175.913Z"/></symbol><symbol viewBox="0 0 12 18" id="arrow_next" xmlns="http://www.w3.org/2000/svg"><path d="M0 2.115 7.417 9 0 15.885 2.283 18 12 9 2.283 0 0 2.115Z"/></symbol><symbol viewBox="0 0 13 18" id="arrow_prev" xmlns="http://www.w3.org/2000/svg"><path d="M11.397 2.116 4.573 8.45 3.98 9l.592.55 6.824 6.334-1.18 1.094L1.604 9l8.613-7.978 1.18 1.094Z"/></symbol><symbol fill="none" viewBox="0 0 24 24" id="atom" xmlns="http://www.w3.org/2000/svg"><path d="M12 11a1 1 0 1 1 0 2 1 1 0 0 1 0-2ZM4.22 4.22C5.65 2.79 8.75 3.43 12 5.56c3.25-2.13 6.35-2.77 7.78-1.34 1.43 1.43.79 4.53-1.34 7.78 2.13 3.25 2.77 6.35 1.34 7.78-1.43 1.43-4.53.79-7.78-1.34-3.25 2.13-6.35 2.77-7.78 1.34-1.43-1.43-.79-4.53 1.34-7.78-2.13-3.25-2.77-6.35-1.34-7.78Zm11.32 4.24c.61.62 1.17 1.25 1.69 1.88 1.38-2.13 1.88-3.96 1.13-4.7-.74-.75-2.57-.25-4.7 1.13.63.52 1.26 1.08 1.88 1.69Zm-7.08 7.08c-.61-.62-1.17-1.25-1.69-1.88-1.38 2.13-1.88 3.96-1.13 4.7.74.75 2.57.25 4.7-1.13-.63-.52-1.26-1.08-1.88-1.69Zm-2.82-9.9c-.75.74-.25 2.57 1.13 4.7.52-.63 1.08-1.26 1.69-1.88.62-.61 1.25-1.17 1.88-1.69-2.13-1.38-3.96-1.88-4.7-1.13Zm4.24 8.48c.7.7 1.42 1.34 2.12 1.91.7-.57 1.42-1.21 2.12-1.91.7-.7 1.34-1.42 1.91-2.12-.57-.7-1.21-1.42-1.91-2.12-.7-.7-1.42-1.34-2.12-1.91-.7.57-1.42 1.21-2.12 1.91-.7.7-1.34 1.42-1.91 2.12.57.7 1.21 1.42 1.91 2.12Zm8.48 4.24c.75-.74.25-2.57-1.13-4.7-.52.63-1.08 1.26-1.69 1.88-.62.61-1.25 1.17-1.88 1.69 2.13 1.38 3.96 1.88 4.7 1.13Z" fill="#fff"/></symbol><symbol fill="none" viewBox="0 0 23 23" id="cake" xmlns="http://www.w3.org/2000/svg"><path d="M16.292 9.583a3.833 3.833 0 0 1 3.833 3.834v4.791a1.916 1.916 0 0 1-1.917 1.917H4.792a1.916 1.916 0 0 1-1.917-1.917v-4.791a3.833 3.833 0 0 1 3.833-3.834V6.708h1.917v2.875h1.917V6.708h1.916v2.875h1.917V6.708h1.917v2.875ZM6.708 11.5a1.916 1.916 0 0 0-1.916 1.917v.958h13.416v-.958a1.917 1.917 0 0 0-1.916-1.917H6.708Zm-1.916 4.792v1.916h13.416v-1.916H4.792ZM6.708 3.833a.958.958 0 0 0 .959-.958.958.958 0 0 1 .958.958v.959a.958.958 0 0 1-1.917 0v-.959Zm3.834 0a.958.958 0 0 0 .958-.958.958.958 0 0 1 .958.958v.959a.958.958 0 1 1-1.916 0v-.959Zm3.833 0a.958.958 0 0 0 .958-.958.958.958 0 0 1 .959.958v.959a.958.958 0 0 1-1.917 0v-.959Z" fill="#5277F1"/></symbol><symbol fill="none" viewBox="0 0 14 10" id="card" xmlns="http://www.w3.org/2000/svg"><path d="M13.985 1.125C13.985.502 13.483 0 12.86 0H1.125C.502 0 0 .502 0 1.125V8.01c0 .608.502 1.11 1.125 1.11h11.75c.623 0 1.125-.502 1.125-1.125V1.125h-.015Zm-1.216.091V2.28H1.216V1.216H12.77ZM1.216 7.904v-3.8H12.77v3.8H1.216ZM11.63 5.928a.61.61 0 0 1-.608.608H8.132a.61.61 0 0 1-.608-.608.61.61 0 0 1 .608-.608h2.889a.61.61 0 0 1 .608.608Z" fill="#6A6A6A"/></symbol><symbol fill="none" viewBox="0 0 14 14" id="clock" xmlns="http://www.w3.org/2000/svg"><path d="M7 0C3.131 0 0 3.13 0 7c0 3.869 3.13 7 7 7 3.869 0 7-3.13 7-7 0-3.869-3.13-7-7-7Zm.345 7.29L5.437 9.56a.45.45 0 0 1-.69-.58L6.55 6.835V1.743a.45.45 0 0 1 .902 0V7a.45.45 0 0 1-.106.29Z" fill="#6A6A6A"/></symbol><symbol fill="none" viewBox="0 0 18 18" id="comment" xmlns="http://www.w3.org/2000/svg"><path d="M15 1.5H3c-.825 0-1.5.675-1.5 1.5v13.5l3-3H15c.825 0 1.5-.675 1.5-1.5V3c0-.825-.675-1.5-1.5-1.5ZM15 12H4.5L3 13.5V3h12v9Z" fill="#5C5C5C"/></symbol><symbol fill="none" viewBox="0 0 23 23" id="comment-quote" xmlns="http://www.w3.org/2000/svg"><path d="M8.625 21.083c-.575 0-.958-.383-.958-.958V17.25H3.833a1.922 1.922 0 0 1-1.916-1.917v-11.5c0-1.054.862-1.916 1.916-1.916h15.334c1.054 0 1.916.862 1.916 1.916v11.5a1.922 1.922 0 0 1-1.916 1.917H13.32l-3.546 3.546c-.192.192-.383.287-.67.287h-.48Zm.958-5.75v2.971l2.971-2.97h6.613v-11.5H3.833v11.5h5.75Zm6.038-9.583-1.342 2.875h2.013v3.833h-3.834V8.433l1.246-2.683h1.917Zm-5.75 0L8.529 8.625h2.013v3.833H6.708V8.433L7.954 5.75h1.917Z" fill="#5277F1"/></symbol><symbol fill="none" viewBox="0 0 15 15" id="cross" xmlns="http://www.w3.org/2000/svg"><path d="M6 0h3v15H6V0Z" fill="#E44C9D"/><path d="M15 6v3H0V6h15Z" fill="#E44C9D"/></symbol><symbol fill="none" viewBox="0 0 25 24" id="cross_white" xmlns="http://www.w3.org/2000/svg"><path d="M10.112 2a2 2 0 0 1 2-2h.674a2 2 0 0 1 2 2v20a2 2 0 0 1-2 2h-.674a2 2 0 0 1-2-2V2Z" fill="#fff"/><path d="M22.132 9.6a2 2 0 0 1 2 2v.8a2 2 0 0 1-2 2H2.764a2 2 0 0 1-2-2v-.8a2 2 0 0 1 2-2h19.368Z" fill="#fff"/></symbol><symbol fill="none" viewBox="0 0 24 24" id="pencil" xmlns="http://www.w3.org/2000/svg"><path d="M20.71 7.04c.39-.39.39-1.04 0-1.41l-2.34-2.34c-.37-.39-1.02-.39-1.41 0l-1.84 1.83 3.75 3.75M3 17.25V21h3.75L17.81 9.93l-3.75-3.75L3 17.25Z" fill="#5277F1"/></symbol><symbol fill="none" viewBox="0 0 18 18" id="phone" xmlns="http://www.w3.org/2000/svg"><path d="M4.965 8.092a11.323 11.323 0 0 0 4.943 4.943l1.65-1.65c.21-.21.502-.27.764-.188a8.52 8.52 0 0 0 2.678.428.75.75 0 0 1 .75.75V15a.75.75 0 0 1-.75.75A12.75 12.75 0 0 1 2.25 3 .75.75 0 0 1 3 2.25h2.625a.75.75 0 0 1 .75.75c0 .938.15 1.838.428 2.678a.753.753 0 0 1-.188.764l-1.65 1.65Z" fill="#5277F1"/></symbol><symbol fill="none" viewBox="0 0 18 18" id="point" xmlns="http://www.w3.org/2000/svg"><circle cx="9" cy="9" r="8" stroke="#F2994A" stroke-width="2"/><path fill="#F2994A" d="M8 4h2v7H8zM8 12h2v2H8z"/></symbol><symbol fill="none" viewBox="0 0 18 18" id="wa" xmlns="http://www.w3.org/2000/svg"><path d="M8.609.944C4.349 1.147.987 4.694 1 8.96a7.965 7.965 0 0 0 .87 3.608l-.849 4.123a.311.311 0 0 0 .377.366l4.04-.958a7.962 7.962 0 0 0 3.438.835c4.354.066 7.984-3.39 8.12-7.743A8 8 0 0 0 8.609.944Zm4.82 12.42A6.223 6.223 0 0 1 9 15.2c-.98 0-1.918-.22-2.788-.653l-.563-.28-2.476.586.521-2.53-.277-.544a6.194 6.194 0 0 1-.681-2.843c0-1.673.652-3.246 1.835-4.43A6.275 6.275 0 0 1 9 2.671c1.672 0 3.245.651 4.428 1.834a6.223 6.223 0 0 1 1.835 4.43 6.275 6.275 0 0 1-1.835 4.43Z" fill="#5C5C5C"/><path d="m12.883 10.67-1.55-.445a.578.578 0 0 0-.572.15l-.378.386a.565.565 0 0 1-.614.13c-.733-.297-2.275-1.668-2.67-2.354a.564.564 0 0 1 .046-.625l.33-.428a.578.578 0 0 0 .072-.587l-.652-1.474a.578.578 0 0 0-.903-.207c-.432.366-.945.922-1.008 1.537-.11 1.086.356 2.455 2.117 4.098 2.034 1.899 3.663 2.15 4.724 1.893.601-.146 1.082-.73 1.385-1.208a.578.578 0 0 0-.327-.866Z" fill="#5C5C5C"/></symbol></svg>